<svg width="900" height="990" xmlns="http://www.w3.org/2000/svg" xmlns:xlink="http://www.w3.org/1999/xlink">>
 <metadata id="metadata8">image/svg+xml</metadata>
 <defs>
  <clipPath id="clipPath16">
   <path id="path18" d="m1.6,791.200012l719.999976,0l0,-792.000012l-719.999976,0l0,792.000012z"/>
  </clipPath>
  <clipPath id="clipPath280">
   <path id="path282" d="m1.6,791.200012l719.999976,0l0,-792.000012l-719.999976,0l0,792.000012z"/>
  </clipPath>
  <clipPath id="clipPath528">
   <path id="path530" d="m1.6,791.200012l719.999976,0l0,-792.000012l-719.999976,0l0,792.000012z"/>
  </clipPath>
  <clipPath id="clipPath1360">
   <path id="path1362" d="m1.6,791.200012l719.999976,0l0,-792.000012l-719.999976,0l0,792.000012z"/>
  </clipPath>
  <clipPath id="clipPath1604">
   <path id="path1606" d="m1.6,791.200012l719.999976,0l0,-792.000012l-719.999976,0l0,792.000012z"/>
  </clipPath>
  <clipPath id="clipPath1848">
   <path id="path1850" d="m1.6,791.200012l719.999976,0l0,-792.000012l-719.999976,0l0,792.000012z"/>
  </clipPath>
  <clipPath id="clipPath1952">
   <path id="path1954" d="m1.6,791.200012l719.999976,0l0,-792.000012l-719.999976,0l0,792.000012z"/>
  </clipPath>
  <clipPath id="clipPath2052">
   <path id="path2054" d="m1.6,791.200012l719.999976,0l0,-792.000012l-719.999976,0l0,792.000012z"/>
  </clipPath>
  <clipPath id="clipPath2288">
   <path id="path2290" d="m1.6,791.200012l719.999976,0l0,-792.000012l-719.999976,0l0,792.000012z"/>
  </clipPath>
  <clipPath id="clipPath2608">
   <path id="path2610" d="m1.6,791.200012l719.999976,0l0,-792.000012l-719.999976,0l0,792.000012z"/>
  </clipPath>
  <clipPath id="clipPath3012">
   <path id="path3014" d="m1.6,791.200012l719.999976,0l0,-792.000012l-719.999976,0l0,792.000012z"/>
  </clipPath>
  <clipPath id="clipPath3220">
   <path id="path3222" d="m1.6,791.200012l719.999976,0l0,-792.000012l-719.999976,0l0,792.000012z"/>
  </clipPath>
  <clipPath id="clipPath3488">
   <path id="path3490" d="m1.6,791.200012l719.999976,0l0,-792.000012l-719.999976,0l0,792.000012z"/>
  </clipPath>
  <clipPath id="clipPath3792">
   <path id="path3794" d="m1.6,791.200012l719.999976,0l0,-792.000012l-719.999976,0l0,792.000012z"/>
  </clipPath>
  <clipPath id="clipPath4080">
   <path id="path4082" d="m1.6,791.200012l719.999976,0l0,-792.000012l-719.999976,0l0,792.000012z"/>
  </clipPath>
  <clipPath id="clipPath4380">
   <path id="path4382" d="m1.6,791.200012l719.999976,0l0,-792.000012l-719.999976,0l0,792.000012z"/>
  </clipPath>
  <clipPath id="clipPath4820">
   <path id="path4822" d="m1.6,791.200012l719.999976,0l0,-792.000012l-719.999976,0l0,792.000012z"/>
  </clipPath>
  <clipPath id="clipPath5136">
   <path id="path5138" d="m1.6,791.200012l719.999976,0l0,-792.000012l-719.999976,0l0,792.000012z"/>
  </clipPath>
  <clipPath id="clipPath5436">
   <path id="path5438" d="m1.6,791.200012l719.999976,0l0,-792.000012l-719.999976,0l0,792.000012z"/>
  </clipPath>
  <clipPath id="clipPath5588">
   <path id="path5590" d="m1.6,791.200012l719.999976,0l0,-792.000012l-719.999976,0l0,792.000012z"/>
  </clipPath>
  <clipPath id="clipPath6140">
   <path id="path6142" d="m1.6,791.200012l719.999976,0l0,-792.000012l-719.999976,0l0,792.000012z"/>
  </clipPath>
 </defs>
 <g>
  <title>Layer 1</title>
  <path d="m54,319c0,-2 0.292892,-2.292908 1,-3c1.414215,-1.414215 0.617317,-2.076111 1,-3c0.541195,-1.306549 0.292892,-2.292908 1,-3c0.707108,-0.707092 1.458805,-1.693451 2,-3c0.382683,-0.923889 1,-1 3,-3c1,-1 2.186005,-1.692535 4,-3c1.14727,-0.826904 1.693436,-1.458801 3,-2c0.923882,-0.38269 2.292892,-0.292908 3,-1c0.707108,-0.707092 1,-1 3,-2c2,-1 3.693436,-1.458801 5,-2c1.847755,-0.765381 4,0 6,0c2,0 4,0 7,0c1,0 5,0 6,0c1,0 2,0 3,0c2,0 2.310005,0.337494 5,2c2.406006,1.487 4.372017,2.385101 8,5c2.29454,1.653809 3.558189,3.519287 7,6c1.813995,1.307465 5,3 7,4c2,1 3.152237,1.234619 5,2c1.306564,0.541199 2,1 3,2c1,1 3.852737,2.173096 5,3c1.813995,1.307465 3.186005,0.692535 5,2c1.147263,0.826904 2.152237,0.234619 4,1c1.306564,0.541199 2.934143,2.144287 5,3c2.92157,1.210144 3.878555,2.493469 7,3c1.974182,0.320374 2.693436,1.458801 4,2c0.923874,0.38269 2.386871,0.917603 5,2c0.923874,0.38269 2.458801,-0.306549 3,1c0.38269,0.923889 2.152237,1.234619 4,2c1.306564,0.541199 2.585785,-0.414215 4,1c0.707108,0.707092 3.026749,1.770233 4,2c2.176254,0.513733 3,2 6,2c2,0 5,0 8,0c2,0 3,2 4,2c1,0 2,0 3,0c1,0 2,0 3,0c1,0 1.292892,0.292908 2,1c0.707108,0.707092 2,0 3,0c3,0 4,1 6,1c2,0 3,1 5,1c3,0 6,1 7,1c2,0 5,0 8,0c3,0 6,0 8,0c2,0 5,0 7,0c3,0 6,0 8,0c3,0 6,0 7,0c4,0 6,0 10,0c2,0 4,0 7,0c1,0 3.823761,-1.486267 6,-2c0.973236,-0.229767 2.796997,-0.2565 4,-1c2.690002,-1.662506 4.080261,-0.31073 7,-1c2.176239,-0.513733 4.128723,-0.130646 7,-1c3.450836,-1.04483 5,-3 8,-3c2,0 4.549164,-1.95517 8,-3c4.785461,-1.448914 7.025818,-0.679626 9,-1c3.121429,-0.506531 6.934143,-3.144287 9,-4c2.92157,-1.210144 5.539856,-2.09726 14,-5c4.823029,-1.654816 7.176971,-2.345184 12,-4c2.115051,-0.725677 4.796997,-2.2565 6,-3c2.690002,-1.662506 5.06601,-1.877655 7,-3c3.118469,-1.809723 3.746735,-2.371338 8,-5c1.9021,-1.175568 6.19577,-2.648865 10,-5c4.253265,-2.628662 9,-5 15,-8c2,-1 5.671356,-1.497406 10,-4c6.59317,-3.811829 9.087433,-4.793945 14,-7c6.119507,-2.748047 10.256592,-6.418854 15,-8c4.743408,-1.581146 12,-4 15,-5c6,-2 10.041321,-3.847229 14,-5c3.036163,-0.884125 8.5914,-1.216644 14,-4c1.257477,-0.647125 2,-1 4,-2l1,0l1,0l1,-1" id="svg_1" stroke-linecap="null" stroke-linejoin="null" stroke-dasharray="null" stroke-width="5" stroke="#000000" fill="none"/>
  <path d="m198,461c0,2 -0.493454,4.878571 -1,8c-0.480545,2.961273 -1.497559,6.925781 -2,12c-0.39415,3.98053 -1.095444,7.977356 -2,12c-1.118668,4.974792 -3.493454,10.878571 -4,14c-0.480545,2.961273 -1,6 -1,10c0,9 0,11 0,14c0,4 0,8 0,14c0,3 -0.458801,4.69342 -1,6c-0.38269,0.923889 -0.881668,3.471863 0,3c3.178925,-1.701294 3.714127,-7.21167 6,-10c2.689789,-3.281006 6.040329,-7.647339 9,-11c2.386169,-2.703003 6.41156,-7.403992 10,-12c2.610977,-3.344055 6.442978,-6.638733 8,-9c2.964478,-4.495758 4.824432,-7.0979 6,-9c2.628662,-4.253265 3.534927,-4.31076 5,-6c2.07193,-2.388947 1.692551,-3.186005 3,-5c0.826904,-1.147278 0.585785,-2.585785 2,-4c0.707108,-0.707092 2,-2 3,-2c1,0 1.692551,1.186005 3,3c1.653809,2.294525 4,5 5,6c1,1 4.376419,4.080322 6,8c0.765366,1.847748 2.95517,4.549164 4,8c0.289795,0.957092 0.789856,3.07843 2,6c0.855713,2.065857 2.115875,3.963806 3,7c1.152771,3.958679 1.839813,5.012939 2,6c0.506531,3.12146 1,4 2,6c1,2 1.61731,3.076111 2,4c0.541199,1.30658 1.692535,4.186035 3,6c0.826904,1.147278 1.173096,1.852722 2,3c1.307465,1.813965 2,2 3,3c1,1 1.386871,1.917603 4,3c0.923889,0.38269 2,0 3,0c2,0 3,0 6,0c1,0 2.902832,-1.224182 5,-2c3.867004,-1.430481 4.957825,-5.880493 11,-8c0.943634,-0.330994 5.056641,-2.917542 8,-5c4.081696,-2.887878 5.222717,-4.723999 9,-8c1.068359,-0.926575 5,-5 6,-6c2,-2 2.811462,-4.134644 5,-7c1.919495,-2.513062 0.710205,-5.042908 1,-6c1.04483,-3.450836 2,-5 2,-7c0,-2 0,-5 0,-7c0,-1 0,-3 0,-4c0,-3 -0.103394,-3.906342 -1,-5c-2.285889,-2.78833 -3.805664,-4.448395 -8,-6c-3.867004,-1.430481 -7.022491,-1.633453 -10,-2c-4.092224,-0.503784 -7.925781,-2.497559 -13,-3c-1.990265,-0.197083 -4,-1 -8,-1c-1,0 -3,-1 -4,-1c-2,0 -3.076111,0.38269 -4,0c-1.306549,-0.541199 -2,-1 -2,0c0,2 -0.48056,3.038727 0,6c0.506531,3.121429 3,4 7,6c4,2 5.991425,3.043884 11,4c10.982025,2.096405 16,3 21,3c7,0 13,0 19,0c7,0 13.077484,0.96109 19,0c6.242889,-1.013092 9.925781,-2.497559 15,-3c4.975677,-0.492676 13,-2 23,-2c7,0 16.003448,0.262878 26,0c19.019714,-0.500183 28,-1 39,-1c13,0 25,0 40,0c15,0 28,0 56,0c11,0 22,0 44,0c4,0 12,0 14,0c5,0 7,0 9,0c2,0 3,0 5,0l1,0l2,0" id="svg_2" stroke-linecap="null" stroke-linejoin="null" stroke-dasharray="null" stroke-width="5" stroke="#000000" fill="none"/>
  <path d="m82,711c2,-2 9,-3 16,-3c10,0 18,0 27,0c13,0 27.292877,3.00708 39,7c16.529297,5.637573 28.033447,11.952454 38,19c7.023743,4.966614 14.32782,11.7771 19,19c7.54541,11.664734 8.497559,15.925781 9,21c0.689758,6.965942 0,13 0,17c0,6 -0.372559,11.303589 -4,18c-3.434692,6.340576 -10.226868,12.817993 -15,19c-5.257172,6.80896 -9.472321,12.47229 -14,17c-4.527679,4.52771 -13.080261,6.31073 -16,7c-2.176239,0.513733 -5,1 -6,1c-1,0 -3.07341,0.068359 -4,-1c-3.276016,-3.777283 -4.881332,-8.025208 -6,-13c-0.904556,-4.022644 -2,-9 -2,-14c0,-5 0,-10 0,-14c0,-9 1.402145,-13.543579 6,-18c3.590332,-3.479858 7.840683,-6.335938 16,-10c9.825134,-4.412109 21.09082,-5.119934 35,-7c20.21228,-2.731995 44.51297,-7.579468 75,-12c33.706299,-4.887329 68,-2 107,-2c33,0 66,0 100,0c50,0 73.074646,-1.701538 138,2c12.022095,0.685425 46,3 92,3c13,0 74.961243,-25.034607 83,-34c31.119568,-34.70697 30.996155,-45.813293 33,-78c0.124268,-1.996155 -54,-13 -67,-13c-27,0 -40.70166,0.210083 -86,19c-13.225159,5.48584 -24.446777,9.968445 -42,24c-6.62793,5.298157 -15.778992,15.419495 -32,38c-6.31073,8.784912 -14.598938,23.93457 -37,56c-12.256165,17.543823 -30.695618,31.22998 -60,61c-14.914307,15.151306 -21.519958,28.912415 -67,55c-12.419678,7.124023 -43,15 -50,15c-28,0 -35.266907,-2.383972 -52,-10c-8.140717,-3.705261 -36.63504,-21.142334 -45,-28c-14.217712,-11.655762 -17,-20 -23,-31l0,-3l-1,-4l-1,-1" id="svg_3" stroke-linecap="null" stroke-linejoin="null" stroke-dasharray="null" stroke-width="5" stroke="#000000" fill="none"/>
  <path d="m748,738c0,0 -1,0 -3,0c-3,0 -6,0 -11,0c-8,0 -16,0 -19,0c-4,0 -4.026733,0.770264 -5,1c-2.17627,0.513733 -3,1 -5,1c-2,0 -5,1 -8,1c-3,0 -5,0 -6,0l-1,0" id="svg_4" stroke-linecap="null" stroke-linejoin="null" stroke-dasharray="null" stroke-width="5" stroke="#000000" fill="none"/>
 </g>
</svg>